<svg xmlns="http://www.w3.org/2000/svg" version="1.1" xmlns:xlink="http://www.w3.org/1999/xlink" width="512" height="512" x="0" y="0" viewBox="0 0 64 64" style="enable-background:new 0 0 512 512" xml:space="preserve" class=""><g><path d="M62 55h-1V14a1 1 0 0 0-1-1h-1v-3a1 1 0 0 0-1-1h-1V4a1 1 0 0 0-.876-.992l-16-2A1 1 0 0 0 39 2v7h-1a1 1 0 0 0-1 1v3h-1a1 1 0 0 0-1 1v13H20a1 1 0 0 0-1 1v11H2a1 1 0 0 0-1 1v22a1 1 0 0 0 1 1h60a1 1 0 0 0 1-1v-6a1 1 0 0 0-1-1zM41 3.133l14 1.75V9H41zM39 11h18v2H39zM21 29h14v10H21zm30 32H3V41h48zM37 39V15h22v40h-6V40a1 1 0 0 0-1-1zm24 22h-8v-4h8z" fill="#33b6ff" opacity="1" data-original="#000000" class=""></path><path d="M46 17h-4a1 1 0 0 0-1 1v4a1 1 0 0 0 1 1h4a1 1 0 0 0 1-1v-4a1 1 0 0 0-1-1zm-1 4h-2v-2h2zM50 23h4a1 1 0 0 0 1-1v-4a1 1 0 0 0-1-1h-4a1 1 0 0 0-1 1v4a1 1 0 0 0 1 1zm1-4h2v2h-2zM46 25h-4a1 1 0 0 0-1 1v4a1 1 0 0 0 1 1h4a1 1 0 0 0 1-1v-4a1 1 0 0 0-1-1zm-1 4h-2v-2h2zM55 30v-4a1 1 0 0 0-1-1h-4a1 1 0 0 0-1 1v4a1 1 0 0 0 1 1h4a1 1 0 0 0 1-1zm-2-1h-2v-2h2zM23 31h10v2H23zM23 35h10v2H23zM27 59a8 8 0 1 0-8-8 8.009 8.009 0 0 0 8 8zm0-14a6 6 0 1 1-6 6 6.006 6.006 0 0 1 6-6zM6 59h11v-2H7V45h10v-2H6a1 1 0 0 0-1 1v14a1 1 0 0 0 1 1z" fill="#33b6ff" opacity="1" data-original="#000000" class=""></path><path d="M11 50h6v2h-6zM49 58V44a1 1 0 0 0-1-1H37v2h10v12H37v2h11a1 1 0 0 0 1-1z" fill="#33b6ff" opacity="1" data-original="#000000" class=""></path><path d="M37 50h6v2h-6zM1 19A10 10 0 1 0 11 9 10.011 10.011 0 0 0 1 19zm10-8a8 8 0 1 1-8 8 8.009 8.009 0 0 1 8-8z" fill="#33b6ff" opacity="1" data-original="#000000" class=""></path><path d="M11 22a1 1 0 0 1-1-1H8a3 3 0 0 0 2 2.816V25h2v-1.184A2.993 2.993 0 0 0 11 18a1 1 0 1 1 1-1h2a3 3 0 0 0-2-2.816V13h-2v1.184A2.993 2.993 0 0 0 11 20a1 1 0 0 1 0 2z" fill="#33b6ff" opacity="1" data-original="#000000" class=""></path></g></svg>