<svg xmlns="http://www.w3.org/2000/svg" version="1.1" xmlns:xlink="http://www.w3.org/1999/xlink" width="512" height="512" x="0" y="0" viewBox="0 0 64 64" style="enable-background:new 0 0 512 512" xml:space="preserve" class=""><g><path d="M61.394 51.925a12.18 12.18 0 0 0-8.19-5.904l-4.387-.877-.591-2.363a8.018 8.018 0 0 0 3.511-4.78H52c2.206 0 4-1.794 4-4 0-.903-.312-1.727-.818-2.397.334-1.065.818-2.862.818-4.371a4.006 4.006 0 0 0-3.474-3.966l-.508-.676A8.433 8.433 0 0 0 46 19.274v-7.689L35.414 1H1v62h62v-5.029c0-2.118-.555-4.209-1.606-6.046zm-12.526-4.732-.633 4.181-2.622-1.573 2.716-2.716zm-9.197-.107 2.716 2.716-2.622 1.573-.633-4.181zm7.221-1.392L44 48.586l-2.892-2.892.515-2.06A8.011 8.011 0 0 0 44 44c.828 0 1.627-.127 2.379-.361zM50 36c0 3.309-2.691 6-5.997 6A6.03 6.03 0 0 1 38 35.981v-4.129c3.79-.678 5.455-1.953 6.694-2.9.862-.66 1.274-.952 2.005-.952.653 0 1.286.192 1.831.555A3.29 3.29 0 0 1 50 31.297zm2 0v-4c1.103 0 2 .897 2 2s-.897 2-2 2zm-1.582-12.208 1.082 1.442h.5c1.103 0 2 .897 2 2 0 .871-.234 2.016-.521 3.058A3.939 3.939 0 0 0 52 30h-.161a5.291 5.291 0 0 0-2.2-3.109 5.28 5.28 0 0 0-2.94-.891c-1.439 0-2.304.662-3.22 1.363-1.211.927-2.721 2.078-6.561 2.637H36a3.97 3.97 0 0 0-1.428.275l-.457-1.703a3.87 3.87 0 0 1 2.424-4.561l6.579-2.392a6.366 6.366 0 0 1 2.185-.385 6.417 6.417 0 0 1 5.115 2.558zm-7.984-4.053L40 20.624V13h4v6.34a8.368 8.368 0 0 0-1.566.399zM36 11V4.414L42.586 11zm2 2v8.351l-2.145.78A5.868 5.868 0 0 0 32.633 25H9V11h25v2zm-2 19v3.981l.001.019H36c-1.103 0-2-.897-2-2s.897-2 2-2zM3 3h31v6H7v18h25.05c-.023.211-.05.421-.05.636 0 .478.059.955.179 1.438l.669 2.493A3.96 3.96 0 0 0 32 34c0 2.206 1.794 4 4 4h.268a8.047 8.047 0 0 0 3.508 4.771l-.593 2.373-4.387.877a12.178 12.178 0 0 0-8.19 5.903A12.2 12.2 0 0 0 25 57.971V61H3zm58 58h-6v-4h-2v4H35v-4h-2v4h-6v-3.029a10.181 10.181 0 0 1 8.189-9.989l1.979-.396 1.067 7.039L44 51.166l5.765 3.459 1.067-7.039 1.979.396A10.192 10.192 0 0 1 61 57.971z" fill="#33b6ff" opacity="1" data-original="#000000" class=""></path><path d="m6.227 57.403 10.005-13.006 1.586 1.22L7.813 58.623zM16 51c-1.654 0-3 1.346-3 3s1.346 3 3 3 3-1.346 3-3-1.346-3-3-3zm0 4c-.551 0-1-.449-1-1s.449-1 1-1 1 .449 1 1-.449 1-1 1zM11 49c0-1.654-1.346-3-3-3s-3 1.346-3 3 1.346 3 3 3 3-1.346 3-3zm-4 0c0-.551.449-1 1-1s1 .449 1 1-.449 1-1 1-1-.449-1-1zM9 29h19v2H9zM9 37h19v2H9zM9 33h2v2H9zM13 33h15v2H13zM9 41h15v2H9zM26 41h2v2h-2zM12 15h2v8h2v-8h2v-2h-6zM23 13c-1.654 0-3 1.346-3 3v7h2v-2h2v2h2v-7c0-1.654-1.346-3-3-3zm-1 6v-3c0-.551.449-1 1-1s1 .449 1 1v3zM32 14.697l-1 1.5-1-1.5V13h-2v2.303L29.798 18 28 20.697V23h2v-1.697l1-1.5 1 1.5V23h2v-2.303L32.202 18 34 15.303V13h-2z" fill="#33b6ff" opacity="1" data-original="#000000" class=""></path></g></svg>