<svg xmlns="http://www.w3.org/2000/svg" version="1.1" xmlns:xlink="http://www.w3.org/1999/xlink" width="512" height="512" x="0" y="0" viewBox="0 0 64 64" style="enable-background:new 0 0 512 512" xml:space="preserve" class=""><g><path d="M15 13h2c.551 0 1 .448 1 1h2c0-1.654-1.346-3-3-3V9h-2v2c-1.654 0-3 1.346-3 3s1.346 3 3 3h2a1.001 1.001 0 0 1 0 2h-2c-.551 0-1-.448-1-1h-2c0 1.654 1.346 3 3 3v2h2v-2c1.654 0 3-1.346 3-3s-1.346-3-3-3h-2a1.001 1.001 0 0 1 0-2z" fill="#33b6ff" opacity="1" data-original="#000000" class=""></path><path d="M16 5C9.935 5 5 9.935 5 16s4.935 11 11 11 11-4.935 11-11S22.065 5 16 5zm0 20c-4.962 0-9-4.037-9-9s4.038-9 9-9 9 4.037 9 9-4.038 9-9 9z" fill="#33b6ff" opacity="1" data-original="#000000" class=""></path><path d="M61.553 13.658 52.236 9h-22.98C26.737 4.248 21.743 1 16 1 7.729 1 1 7.729 1 16s6.729 15 15 15c1.113 0 2.195-.131 3.24-.362a10.275 10.275 0 0 0 3.442 2.821l1.184.592A2.04 2.04 0 0 1 25 35.886c0 .851-.535 1.622-1.331 1.92C19.68 39.302 17 43.17 17 47.43V57c-2.206 0-4 1.794-4 4v2h38v-2c0-2.206-1.794-4-4-4v-9.57c0-4.26-2.68-8.128-6.669-9.624A2.06 2.06 0 0 1 39 35.886c0-.782.435-1.485 1.133-1.835l1.185-.592A10.22 10.22 0 0 0 47 24.266V23h5.236l9.317-4.658C62.445 17.895 63 16.998 63 16s-.555-1.895-1.447-2.342zM30.949 17H51v4H30.125a14.86 14.86 0 0 0 .824-4zM51 11v4H30.949a14.898 14.898 0 0 0-.824-4zM3 16C3 8.832 8.832 3 16 3s13 5.832 13 13-5.832 13-13 13S3 23.168 3 16zm46 45H15c0-1.103.897-2 2-2h30c1.103 0 2 .897 2 2zm-4-36.734a8.231 8.231 0 0 1-4.576 7.404l-1.186.592A4.032 4.032 0 0 0 37 35.886a4.07 4.07 0 0 0 2.629 3.793A8.318 8.318 0 0 1 45 47.43V57H19v-9.57a8.318 8.318 0 0 1 5.371-7.751A4.071 4.071 0 0 0 27 35.886a4.03 4.03 0 0 0-2.24-3.624l-1.184-.592a8.297 8.297 0 0 1-2.245-1.667A15.068 15.068 0 0 0 29.256 23H45zm15.658-7.713L53 20.382v-8.764l7.658 3.829a.616.616 0 0 1 0 1.106z" fill="#33b6ff" opacity="1" data-original="#000000" class=""></path><path d="M21 47h2v8h2v-8h2v-2h-6zM29 48v7h2v-3h2v3h2v-7c0-1.654-1.346-3-3-3s-3 1.346-3 3zm3-1c.551 0 1 .448 1 1v2h-2v-2c0-.552.449-1 1-1zM39 54.236l1-2 1 2V55h2v-1.236L41.118 50 43 46.236V45h-2v.764l-1 2-1-2V45h-2v1.236L38.882 50 37 53.764V55h2zM56 47.586V32h-2v15.586l-4.293-4.293-1.414 1.414L55 51.414l6.707-6.707-1.414-1.414zM54 28h2v2h-2zM54 24h2v2h-2zM14.293 39.707l1.414-1.414L9 31.586l-6.707 6.707 1.414 1.414L8 35.414V51h2V35.414zM8 57h2v2H8zM8 53h2v2H8z" fill="#33b6ff" opacity="1" data-original="#000000" class=""></path></g></svg>