<svg xmlns="http://www.w3.org/2000/svg" version="1.1" xmlns:xlink="http://www.w3.org/1999/xlink" width="512" height="512" x="0" y="0" viewBox="0 0 510 510" style="enable-background:new 0 0 512 512" xml:space="preserve" fill-rule="evenodd" class=""><g><path d="M79.834 164.546C39.174 161.36 7 127.195 7 85.738 7 42.19 42.502 6.688 86.051 6.688c43.532 0 79.05 35.502 79.05 79.05 0 40.236-30.32 73.603-69.267 78.447v62.462h56.79l.174-.067a103.922 103.922 0 0 1 9.341-22.516l-6.413-14.422a8 8 0 0 1 1.654-8.907l21.413-21.413a8 8 0 0 1 8.907-1.653l14.422 6.413a103.144 103.144 0 0 1 22.492-9.32l5.691-14.747a7.999 7.999 0 0 1 7.463-5.12h30.29c3.311 0 6.28 2.04 7.467 5.131l5.663 14.737a103.214 103.214 0 0 1 22.485 9.319l14.423-6.413a8 8 0 0 1 8.907 1.653l21.413 21.413a7.999 7.999 0 0 1 1.657 8.897l-6.39 14.426a102.993 102.993 0 0 1 9.326 22.526l.163.063h60.343v-62.465c-38.946-4.855-69.24-38.216-69.24-78.444 0-43.548 35.502-79.05 79.05-79.05 43.533 0 79.051 35.502 79.051 79.05 0 41.466-32.202 75.636-72.861 78.81v69.434a8.004 8.004 0 0 1-7.973 8.665h-48.699v12.142h48.699a8.004 8.004 0 0 1 7.973 8.666v66.574l63.349 27.155a8 8 0 0 1 4.848 7.353v53.681c0 41.226-30.002 76.852-70.59 83.927l-2.419.423c-.911.16-1.844.16-2.755 0l-2.416-.422c-40.591-7.076-70.593-42.702-70.593-83.928v-53.681a8 8 0 0 1 4.848-7.353l59.728-25.602v-60.793h-40.711a8 8 0 0 1-5.088 6.677l-14.712 5.662a104.078 104.078 0 0 1-9.325 22.485l6.394 14.435a7.998 7.998 0 0 1-1.657 8.897l-21.413 21.413a8 8 0 0 1-8.897 1.658l-14.421-6.388a102.89 102.89 0 0 1-22.5 9.32l-5.661 14.711a8 8 0 0 1-7.466 5.126h-30.29a8 8 0 0 1-7.466-5.126l-5.66-14.709a103.846 103.846 0 0 1-22.517-9.328l-14.436 6.394a8 8 0 0 1-8.896-1.658l-21.413-21.413a8 8 0 0 1-1.654-8.907l6.411-14.417a103.814 103.814 0 0 1-9.336-22.489l-14.722-5.666a8 8 0 0 1-5.088-6.677H95.834v66.148c38.953 4.845 69.267 38.219 69.267 78.447 0 43.54-35.51 79.051-79.05 79.051S7 458.924 7 415.384c0-41.448 32.181-75.62 72.834-78.808v-73.787c0-4.415 3.585-8 8-8h45.118v-12.142H87.834c-4.415 0-8-3.585-8-8zm268.845 77.516-5.255-2.023a7.998 7.998 0 0 1-4.911-5.622 87.11 87.11 0 0 0-10.618-25.649 7.998 7.998 0 0 1-.503-7.436l5.83-13.163-13.647-13.647-13.158 5.85a8 8 0 0 1-7.447-.499 87.28 87.28 0 0 0-25.624-10.619 7.999 7.999 0 0 1-5.618-4.913l-5.167-13.446h-19.305l-5.192 13.456a7.997 7.997 0 0 1-5.614 4.903 87.269 87.269 0 0 0-25.624 10.619 8 8 0 0 1-7.447.499l-13.158-5.85-13.642 13.641 5.851 13.158a8.002 8.002 0 0 1-.499 7.447 87.994 87.994 0 0 0-10.654 25.672 7.999 7.999 0 0 1-4.905 5.599l-5.255 2.023c-.092.036-.184.072-.277.106l-7.888 3.036v19.303l13.42 5.165a7.998 7.998 0 0 1 4.904 5.593c2.18 9.058 5.756 17.725 10.648 25.636a8.002 8.002 0 0 1 .506 7.458l-5.851 13.158 13.647 13.648 13.163-5.831a8 8 0 0 1 7.419.493c7.941 4.865 16.58 8.475 25.667 10.628a8.002 8.002 0 0 1 5.622 4.911l5.164 13.419h19.303l5.165-13.419a8 8 0 0 1 5.617-4.909 86.929 86.929 0 0 0 25.613-10.613 8.003 8.003 0 0 1 7.447-.51l13.163 5.831 13.653-13.653-5.83-13.163a8 8 0 0 1 .493-7.42c4.865-7.941 8.476-16.581 10.629-25.641a7.998 7.998 0 0 1 4.91-5.616l13.419-5.165v-19.303l-7.887-3.036c-.093-.034-.185-.07-.277-.106zM86.051 148.789c34.721 0 63.05-28.317 63.05-63.051s-28.329-63.05-63.05-63.05C51.317 22.688 23 51.004 23 85.738s28.317 63.051 63.051 63.051zM78.047 46.412v-2.419c0-4.415 3.585-8 8-8 4.416 0 8 3.585 8 8v2.337c7.862 2.039 15.02 7.288 18.797 16.265 1.711 4.07-.203 8.764-4.273 10.476s-8.764-.202-10.476-4.272c-3.104-7.379-11.408-8.795-17.349-6.457-3.19 1.255-5.852 3.75-5.67 7.497v.001c.136 2.832 2.064 4.374 4.249 5.442 2.488 1.215 5.368 1.884 8.082 2.334 12.409 2.028 25.823 7.868 27.63 22.59l.003.021c1.691 14.084-9.14 22.517-20.993 25.084v2.173c0 4.415-3.584 8-8 8-4.415 0-8-3.585-8-8v-2.295c-9.891-2.379-18.266-9.13-20.918-19.775-1.068-4.284 1.544-8.629 5.829-9.697a8.004 8.004 0 0 1 9.696 5.829c1.555 6.241 7.964 8.744 14.072 8.6 2.793-.066 5.83-.649 8.394-1.905 2.373-1.162 4.4-3.017 4.035-6.097-.414-3.336-2.772-5.104-5.417-6.305-2.789-1.266-5.958-1.951-8.926-2.435l-.019-.003c-12.179-2.017-25.001-8.32-25.699-22.79-.54-11.171 6.28-19.415 15.794-23.158a29.631 29.631 0 0 1 3.159-1.041zm345.278 102.377c34.722 0 63.051-28.317 63.051-63.051s-28.329-63.05-63.051-63.05c-34.734 0-63.05 28.316-63.05 63.05s28.316 63.051 63.05 63.051zm-8-102.377v-2.419c0-4.415 3.585-8 8-8 4.416 0 8 3.585 8 8v2.337c7.862 2.039 15.021 7.288 18.797 16.265a8.004 8.004 0 0 1-4.273 10.476 8.004 8.004 0 0 1-10.476-4.272c-3.103-7.379-11.408-8.795-17.348-6.457-3.191 1.255-5.852 3.75-5.671 7.497v.001c.136 2.832 2.064 4.374 4.249 5.442 2.488 1.215 5.369 1.884 8.082 2.334 12.409 2.028 25.823 7.868 27.63 22.59l.003.021c1.691 14.084-9.14 22.517-20.993 25.084v2.173c0 4.415-3.584 8-8 8-4.415 0-8-3.585-8-8v-2.295c-9.891-2.379-18.266-9.13-20.918-19.775a8.005 8.005 0 0 1 5.829-9.697 8.005 8.005 0 0 1 9.697 5.829c1.554 6.241 7.963 8.744 14.071 8.6 2.793-.066 5.83-.649 8.394-1.905 2.373-1.162 4.4-3.017 4.035-6.097-.414-3.336-2.771-5.104-5.417-6.305-2.789-1.266-5.958-1.951-8.925-2.435l-.02-.003c-12.178-2.017-25.001-8.32-25.698-22.79-.541-11.171 6.279-19.415 15.793-23.158a29.706 29.706 0 0 1 3.159-1.041zm8 298.372-58.386 25.027v48.407c0 33.484 24.372 62.418 57.341 68.166l1.045.182 1.046-.182c32.969-5.748 57.341-34.682 57.341-68.166v-48.407zm-38.848 78.26a8.004 8.004 0 0 1-.01-11.314 8.004 8.004 0 0 1 11.314-.01l13.971 13.948 41.397-37.534a8.004 8.004 0 0 1 11.3.553 8.005 8.005 0 0 1-.553 11.301l-47.036 42.646a8 8 0 0 1-11.025-.265zM278.708 255.563c20.885 9.089 36.038 28.873 38.556 52.433a8 8 0 0 1-7.955 8.85H196.486a8 8 0 0 1-7.954-8.855c2.53-23.559 17.688-43.341 38.568-52.429-6.711-6.656-10.877-15.877-10.877-26.037 0-20.204 16.471-36.69 36.675-36.69 20.222 0 36.69 16.487 36.69 36.69 0 10.161-4.166 19.382-10.88 26.038zm-25.81 10.652c-22.007 0-40.61 14.591-46.663 34.631h93.33c-6.043-20.04-24.649-34.631-46.667-34.631zm0-16c11.403 0 20.69-9.298 20.69-20.69 0-11.393-9.287-20.69-20.69-20.69-11.392 0-20.675 9.298-20.675 20.69 0 11.391 9.283 20.69 20.675 20.69zM86.051 478.435c34.727 0 63.05-28.324 63.05-63.051s-28.323-63.051-63.05-63.051C51.323 352.333 23 380.657 23 415.384s28.323 63.051 63.051 63.051zm22.05-107.118c2.576-3.585 7.579-4.405 11.165-1.829s4.406 7.579 1.829 11.165l-56.591 78.771a8.004 8.004 0 0 1-11.165 1.83 8.005 8.005 0 0 1-1.829-11.165zm-45-4.924a21.376 21.376 0 0 1 15.208 6.297 21.448 21.448 0 0 1 6.297 15.208c0 11.871-9.591 21.504-21.505 21.504-11.872 0-21.504-9.59-21.504-21.504 0-11.872 9.632-21.505 21.504-21.505zm0 16a5.506 5.506 0 0 0-5.504 5.505 5.499 5.499 0 0 0 5.504 5.504 5.5 5.5 0 0 0 5.505-5.504 5.494 5.494 0 0 0-5.505-5.505zM109 421.366a21.379 21.379 0 0 1 15.208 6.296 21.38 21.38 0 0 1 6.297 15.208c0 11.872-9.633 21.505-21.505 21.505s-21.504-9.633-21.504-21.505c0-11.871 9.632-21.504 21.504-21.504zm0 16a5.506 5.506 0 0 0 0 11.009 5.507 5.507 0 0 0 5.505-5.505 5.473 5.473 0 0 0-1.61-3.894 5.477 5.477 0 0 0-3.895-1.61z" fill="#33b6ff" opacity="1" data-original="#000000" class=""></path></g></svg>